<mxfile host="Electron" modified="2024-05-10T21:25:04.341Z" agent="Mozilla/5.0 (Macintosh; Intel Mac OS X 10_15_7) AppleWebKit/537.36 (KHTML, like Gecko) draw.io/24.2.5 Chrome/120.0.6099.109 Electron/28.1.0 Safari/537.36" etag="2RGF8CzsyiYfUE2Qg3l6" version="24.2.5" type="device">
  <diagram name="Page-1" id="LYMdJRxrYTQsAfHXI3i9">
    <mxGraphModel dx="1042" dy="538" grid="1" gridSize="10" guides="1" tooltips="1" connect="1" arrows="1" fold="1" page="0" pageScale="1" pageWidth="827" pageHeight="1169" math="0" shadow="0">
      <root>
        <mxCell id="0" />
        <mxCell id="1" parent="0" />
        <mxCell id="r6eJtlauYgoKBoreaXhq-1" value="" style="rounded=0;whiteSpace=wrap;html=1;dashed=1;fillColor=none;" parent="1" vertex="1">
          <mxGeometry x="70" y="120" width="280" height="140" as="geometry" />
        </mxCell>
        <mxCell id="r6eJtlauYgoKBoreaXhq-2" value="Host" style="text;html=1;align=center;verticalAlign=middle;whiteSpace=wrap;rounded=0;fontSize=14;" parent="1" vertex="1">
          <mxGeometry x="70" y="120" width="60" height="30" as="geometry" />
        </mxCell>
        <mxCell id="r6eJtlauYgoKBoreaXhq-3" value="Application" style="rounded=0;whiteSpace=wrap;html=1;fillColor=#dae8fc;strokeColor=#6c8ebf;" parent="1" vertex="1">
          <mxGeometry x="100" y="152" width="220" height="42" as="geometry" />
        </mxCell>
        <mxCell id="r6eJtlauYgoKBoreaXhq-11" value="Tracing&lt;div&gt;libraries&lt;/div&gt;" style="rounded=0;whiteSpace=wrap;html=1;fillColor=#d5e8d4;strokeColor=#82b366;" parent="1" vertex="1">
          <mxGeometry x="171" y="194" width="78" height="42" as="geometry" />
        </mxCell>
        <mxCell id="r6eJtlauYgoKBoreaXhq-13" value="Metric&lt;div&gt;libraries&lt;/div&gt;" style="rounded=0;whiteSpace=wrap;html=1;fillColor=#f8cecc;strokeColor=#b85450;" parent="1" vertex="1">
          <mxGeometry x="249" y="194" width="71" height="42" as="geometry" />
        </mxCell>
        <mxCell id="r6eJtlauYgoKBoreaXhq-14" value="Logging&lt;div&gt;libraries&lt;/div&gt;" style="rounded=0;whiteSpace=wrap;html=1;fillColor=#ffe6cc;strokeColor=#d79b00;" parent="1" vertex="1">
          <mxGeometry x="100" y="194" width="71" height="42" as="geometry" />
        </mxCell>
        <mxCell id="r6eJtlauYgoKBoreaXhq-15" style="edgeStyle=none;curved=1;rounded=0;orthogonalLoop=1;jettySize=auto;html=1;exitX=0.5;exitY=0;exitDx=0;exitDy=0;fontSize=12;startSize=8;endSize=8;" parent="1" source="r6eJtlauYgoKBoreaXhq-2" target="r6eJtlauYgoKBoreaXhq-2" edge="1">
          <mxGeometry relative="1" as="geometry" />
        </mxCell>
        <mxCell id="r6eJtlauYgoKBoreaXhq-16" value="Logging Agent&lt;div&gt;(e.g. Promtail)&lt;/div&gt;" style="rounded=1;whiteSpace=wrap;html=1;fillColor=#ffe6cc;strokeColor=#d79b00;" parent="1" vertex="1">
          <mxGeometry x="-12.5" y="300" width="110" height="60" as="geometry" />
        </mxCell>
        <mxCell id="r6eJtlauYgoKBoreaXhq-17" value="Tracing Agent&lt;div&gt;(e.g. Jaeger Agent)&lt;/div&gt;" style="rounded=1;whiteSpace=wrap;html=1;fillColor=#d5e8d4;strokeColor=#82b366;" parent="1" vertex="1">
          <mxGeometry x="150" y="300" width="120" height="60" as="geometry" />
        </mxCell>
        <mxCell id="r6eJtlauYgoKBoreaXhq-18" value="Metric Agent&lt;div&gt;(e.g. OpenCensus Agent)&lt;/div&gt;" style="rounded=1;whiteSpace=wrap;html=1;fillColor=#f8cecc;strokeColor=#b85450;" parent="1" vertex="1">
          <mxGeometry x="320" y="300" width="120" height="60" as="geometry" />
        </mxCell>
        <mxCell id="r6eJtlauYgoKBoreaXhq-19" value="Logging backend" style="rounded=1;whiteSpace=wrap;html=1;fillColor=#ffe6cc;strokeColor=#d79b00;" parent="1" vertex="1">
          <mxGeometry x="-15" y="410" width="115" height="60" as="geometry" />
        </mxCell>
        <mxCell id="r6eJtlauYgoKBoreaXhq-20" value="Tracing Backend" style="rounded=1;whiteSpace=wrap;html=1;fillColor=#d5e8d4;strokeColor=#82b366;" parent="1" vertex="1">
          <mxGeometry x="150" y="410" width="120" height="60" as="geometry" />
        </mxCell>
        <mxCell id="r6eJtlauYgoKBoreaXhq-21" value="Metric Backend" style="rounded=1;whiteSpace=wrap;html=1;fillColor=#f8cecc;strokeColor=#b85450;" parent="1" vertex="1">
          <mxGeometry x="320" y="410" width="120" height="60" as="geometry" />
        </mxCell>
        <mxCell id="r6eJtlauYgoKBoreaXhq-22" value="" style="endArrow=classic;html=1;rounded=0;fontSize=12;startSize=8;endSize=8;curved=1;exitX=0.5;exitY=1;exitDx=0;exitDy=0;entryX=0.5;entryY=0;entryDx=0;entryDy=0;" parent="1" source="r6eJtlauYgoKBoreaXhq-14" target="r6eJtlauYgoKBoreaXhq-16" edge="1">
          <mxGeometry width="50" height="50" relative="1" as="geometry">
            <mxPoint x="180" y="360" as="sourcePoint" />
            <mxPoint x="230" y="310" as="targetPoint" />
          </mxGeometry>
        </mxCell>
        <mxCell id="r6eJtlauYgoKBoreaXhq-23" value="" style="endArrow=classic;html=1;rounded=0;fontSize=12;startSize=8;endSize=8;curved=1;exitX=0.5;exitY=1;exitDx=0;exitDy=0;entryX=0.5;entryY=0;entryDx=0;entryDy=0;" parent="1" source="r6eJtlauYgoKBoreaXhq-11" target="r6eJtlauYgoKBoreaXhq-17" edge="1">
          <mxGeometry width="50" height="50" relative="1" as="geometry">
            <mxPoint x="146" y="216" as="sourcePoint" />
            <mxPoint x="50" y="310" as="targetPoint" />
          </mxGeometry>
        </mxCell>
        <mxCell id="r6eJtlauYgoKBoreaXhq-24" value="" style="endArrow=classic;html=1;rounded=0;fontSize=12;startSize=8;endSize=8;curved=1;exitX=0.5;exitY=1;exitDx=0;exitDy=0;entryX=0.5;entryY=0;entryDx=0;entryDy=0;" parent="1" source="r6eJtlauYgoKBoreaXhq-13" target="r6eJtlauYgoKBoreaXhq-18" edge="1">
          <mxGeometry width="50" height="50" relative="1" as="geometry">
            <mxPoint x="220" y="216" as="sourcePoint" />
            <mxPoint x="220" y="310" as="targetPoint" />
          </mxGeometry>
        </mxCell>
        <mxCell id="r6eJtlauYgoKBoreaXhq-25" value="" style="endArrow=classic;html=1;rounded=0;fontSize=12;startSize=8;endSize=8;curved=1;exitX=0.5;exitY=1;exitDx=0;exitDy=0;entryX=0.5;entryY=0;entryDx=0;entryDy=0;" parent="1" source="r6eJtlauYgoKBoreaXhq-16" target="r6eJtlauYgoKBoreaXhq-19" edge="1">
          <mxGeometry width="50" height="50" relative="1" as="geometry">
            <mxPoint x="146" y="216" as="sourcePoint" />
            <mxPoint x="50" y="310" as="targetPoint" />
          </mxGeometry>
        </mxCell>
        <mxCell id="r6eJtlauYgoKBoreaXhq-26" value="" style="endArrow=classic;html=1;rounded=0;fontSize=12;startSize=8;endSize=8;curved=1;exitX=0.5;exitY=1;exitDx=0;exitDy=0;entryX=0.5;entryY=0;entryDx=0;entryDy=0;" parent="1" source="r6eJtlauYgoKBoreaXhq-17" target="r6eJtlauYgoKBoreaXhq-20" edge="1">
          <mxGeometry width="50" height="50" relative="1" as="geometry">
            <mxPoint x="50" y="370" as="sourcePoint" />
            <mxPoint x="50" y="480" as="targetPoint" />
          </mxGeometry>
        </mxCell>
        <mxCell id="r6eJtlauYgoKBoreaXhq-27" value="" style="endArrow=classic;html=1;rounded=0;fontSize=12;startSize=8;endSize=8;curved=1;exitX=0.5;exitY=1;exitDx=0;exitDy=0;entryX=0.5;entryY=0;entryDx=0;entryDy=0;" parent="1" source="r6eJtlauYgoKBoreaXhq-18" target="r6eJtlauYgoKBoreaXhq-21" edge="1">
          <mxGeometry width="50" height="50" relative="1" as="geometry">
            <mxPoint x="220" y="370" as="sourcePoint" />
            <mxPoint x="220" y="480" as="targetPoint" />
          </mxGeometry>
        </mxCell>
      </root>
    </mxGraphModel>
  </diagram>
</mxfile>
